<svg width="32" height="16" viewBox="0 0 32 16" fill="none" xmlns="http://www.w3.org/2000/svg">
  <path d="M24.6071 15.4929C24.2166 15.8834 23.5834 15.8834 23.1929 15.4929L22.5071 14.8071C22.1166 14.4166 22.1166 13.7834 22.5071 13.3929L26.3 9.6H13C12.4477 9.6 12 9.15228 12 8.6V7.6C12 7.04772 12.4477 6.6 13 6.6H26.3L22.5071 2.80711C22.1166 2.41658 22.1166 1.78342 22.5071 1.39289L23.1929 0.707107C23.5834 0.316583 24.2166 0.316582 24.6071 0.707107L31.2929 7.39289C31.6834 7.78342 31.6834 8.41658 31.2929 8.80711L24.6071 15.4929ZM1.5 9.6C1.1 9.6 0.75 9.45 0.45 9.15C0.15 8.85 0 8.5 0 8.1C0 7.66667 0.15 7.30833 0.45 7.025C0.75 6.74167 1.1 6.6 1.5 6.6C1.93333 6.6 2.29167 6.74167 2.575 7.025C2.85833 7.30833 3 7.66667 3 8.1C3 8.5 2.85833 8.85 2.575 9.15C2.29167 9.45 1.93333 9.6 1.5 9.6ZM7.5 9.6C7.1 9.6 6.75 9.45 6.45 9.15C6.15 8.85 6 8.5 6 8.1C6 7.66667 6.15 7.30833 6.45 7.025C6.75 6.74167 7.1 6.6 7.5 6.6C7.93333 6.6 8.29167 6.74167 8.575 7.025C8.85833 7.30833 9 7.66667 9 8.1C9 8.5 8.85833 8.85 8.575 9.15C8.29167 9.45 7.93333 9.6 7.5 9.6Z" fill="#C3CFF7"/>
</svg>
